<svg width="88" height="35" viewBox="0 0 88 35" fill="none" xmlns="http://www.w3.org/2000/svg">
<g clip-path="url(#clip0_281_150)">
<path d="M12.5082 34.9934C10.6525 34.9934 8.9618 34.6309 7.42964 33.906C5.89749 33.1811 4.57666 32.2124 3.45396 30.9932C2.33786 29.774 1.47932 28.3967 0.891557 26.8678C0.297186 25.3389 0 23.7573 0 22.1229C0 20.4886 0.316998 18.8411 0.94439 17.3253C1.57178 15.8096 2.45013 14.4521 3.57944 13.2527C4.70874 12.0533 6.04278 11.1109 7.58814 10.4255C9.13351 9.74015 10.8176 9.39746 12.6469 9.39746C14.4762 9.39746 16.2263 9.75992 17.7585 10.4848C19.2907 11.2097 20.6115 12.1851 21.7144 13.4174C22.8173 14.6498 23.6692 16.0271 24.2636 17.5626C24.8579 19.0915 25.1551 20.6468 25.1551 22.235C25.1551 23.9154 24.8447 25.5168 24.2305 27.0326C23.6098 28.5483 22.7314 29.9058 21.5955 31.1052C20.453 32.3046 19.1189 33.2536 17.5868 33.9522C16.0546 34.6507 14.364 35 12.5082 35V34.9934ZM5.9173 22.1954C5.9173 23.1708 6.06259 24.1066 6.35978 25.0226C6.65696 25.932 7.08623 26.7492 7.64098 27.4609C8.19572 28.1726 8.88916 28.7394 9.70807 29.1677C10.527 29.5961 11.4978 29.807 12.6139 29.807C13.73 29.807 14.6678 29.5895 15.4999 29.148C16.332 28.713 17.0188 28.1199 17.567 27.3687C18.1151 26.624 18.5246 25.8002 18.7953 24.8974C19.0661 23.9945 19.2048 23.0719 19.2048 22.1229C19.2048 21.174 19.0529 20.2184 18.7623 19.3156C18.4651 18.4127 18.0359 17.6021 17.4811 16.8772C16.9198 16.1523 16.2263 15.5922 15.3942 15.1902C14.5621 14.7882 13.6243 14.5839 12.5809 14.5839C11.4648 14.5839 10.4874 14.7947 9.66184 15.2231C8.82972 15.6515 8.14289 16.2314 7.59475 16.9629C7.0466 17.701 6.63054 18.5116 6.34657 19.4012C6.06259 20.2909 5.9173 21.2201 5.9173 22.1954Z" fill="white"/>
<path d="M50.7725 21.6287V34.8155H45.8921V32.3442C43.9571 34.1103 41.7381 34.9934 39.2285 34.9934C37.5907 34.9934 36.0453 34.6771 34.5792 34.0444C33.1197 33.4184 31.8253 32.5353 30.7158 31.3952C29.5997 30.2551 28.7147 28.8976 28.0609 27.3027C27.4071 25.7145 27.0835 23.955 27.0835 22.0043C27.0835 20.2777 27.4071 18.6434 28.0609 17.1145C28.7147 15.5856 29.6129 14.2412 30.7488 13.0813C31.8913 11.9215 33.2254 11.012 34.7575 10.3662C36.2897 9.71378 37.9473 9.38428 39.7304 9.38428C42.0551 9.38428 44.1156 9.87853 45.8921 10.8802C47.6752 11.8753 49.0026 13.2131 49.881 14.8936L45.4958 18.1623C44.9279 17.0222 44.1024 16.1457 43.0193 15.5131C41.9362 14.8804 40.7673 14.5707 39.5059 14.5707C38.5549 14.5707 37.6832 14.7684 36.8907 15.1572C36.0916 15.546 35.4113 16.093 34.8368 16.7915C34.2688 17.4901 33.8263 18.3007 33.5027 19.2299C33.1791 20.1525 33.0206 21.1476 33.0206 22.2152C33.0206 23.2828 33.1857 24.3174 33.5159 25.24C33.8528 26.1627 34.315 26.9601 34.9094 27.6388C35.5038 28.311 36.2104 28.8382 37.0293 29.2205C37.8483 29.6027 38.7398 29.7872 39.7172 29.7872C40.9258 29.7872 42.0881 29.4841 43.2108 28.8844C44.1684 28.3638 45.06 27.6388 45.8789 26.7031V25.8068H41.038V21.6089H50.7659L50.7725 21.6287Z" fill="white"/>
<path d="M58.0375 34.8088V34.8228H58.0305L58.0375 34.8088Z" fill="#262626"/>
<path d="M86.7188 3.63773V1.27848H84.3281L83.0007 0H70.0566L75.0427 4.80418H83.1856V12.8507L88 17.8196V4.96234L86.7188 3.63773Z" fill="#00FF1E"/>
<path d="M79.025 8.90979V34.822H74.2172V34.7825L74.1511 34.822L66.0941 20.884L58.0371 34.8089L58.0305 34.822H53.2227V8.90979H58.0371V23.9418H58.7569L63.3072 16.093H68.8744L73.4181 23.9418H74.2172V8.90979H79.025Z" fill="white"/>
</g>
<defs>
<clipPath id="clip0_281_150">
<rect width="88" height="35" fill="white"/>
</clipPath>
</defs>
</svg>
