<svg width="269" height="22" viewBox="0 0 269 22" fill="none" xmlns="http://www.w3.org/2000/svg">
<g clip-path="url(#clip0_193_24)">
<path d="M20.6531 21.6359H17.0827L3.30141 4.84511V21.6359H0V0.359863H3.55282L17.3341 17.1506V0.359863H20.6531V21.6337V21.6359Z" fill="white" fill-opacity="0.35"/>
<path d="M45.7831 21.6359H28.8548V0.359863H45.256V2.88523H31.8607V9.38605H44.3893V11.9114H31.8607V19.1084H45.7831V21.6337V21.6359Z" fill="white" fill-opacity="0.35"/>
<path d="M61.0375 21.9979C57.3899 21.9979 54.6641 21.3253 52.8579 19.9801C51.0517 18.635 50.1012 16.9086 50.0086 14.7988H53.3078C53.4842 16.3859 54.2869 17.5576 55.716 18.318C57.1451 19.0784 58.8719 19.4575 60.8964 19.4575C62.8128 19.4575 64.3588 19.1341 65.5298 18.4851C66.7009 17.836 67.2853 16.9557 67.2853 15.844C67.2853 14.6745 66.6788 13.822 65.4681 13.2908C64.2551 12.7596 62.1711 12.2348 59.2115 11.7165C56.2519 11.1981 54.1282 10.4806 52.8402 9.56168C51.5523 8.64278 50.9083 7.41973 50.9083 5.89037C50.9083 4.16824 51.7464 2.75669 53.4224 1.65359C55.0985 0.550482 57.3259 0 60.1025 0C63.0201 0 65.3732 0.556908 67.1618 1.66858C68.9503 2.78026 69.8964 4.35245 70.0023 6.38516H66.6678C66.326 3.81268 64.1846 2.52536 60.2436 2.52536C58.3382 2.52536 56.8606 2.82095 55.813 3.40999C54.7655 4.00117 54.2428 4.78298 54.2428 5.76185C54.2428 6.65291 54.6641 7.31905 55.5043 7.76458C56.3445 8.21011 57.9169 8.64064 60.2171 9.05618C62.5173 9.47172 64.3433 9.88297 65.6974 10.2899C67.0493 10.6969 68.2093 11.3266 69.1753 12.1834C70.139 13.0402 70.622 14.1883 70.622 15.6298C70.622 17.4591 69.7376 18.9777 67.9667 20.1858C66.1958 21.396 63.8868 22 61.0397 22H61.0375V21.9979Z" fill="white" fill-opacity="0.35"/>
<path d="M91.9116 21.276H76V0H79.4029V18.7485H91.9116V21.2739V21.276Z" fill="white" fill-opacity="0.35"/>
<path d="M101.204 21.6359H98.2903V0.359863H101.204V21.6337V21.6359Z" fill="white" fill-opacity="0.35"/>
<path d="M130.566 21.6359H127.066V11.6223H113.393V21.6359H109.91V0.359863H113.393V9.09689H127.066V0.359863H130.566V21.6337V21.6359Z" fill="white" fill-opacity="0.35"/>
<path d="M158.752 21.6359H154.963L152.022 15.1629H141.396L138.593 21.6359H135.045L144.788 0.359863H148.405L158.752 21.6337V21.6359ZM151.036 12.9288L146.572 3.06087L142.316 12.9288H151.038H151.036Z" fill="white" fill-opacity="0.35"/>
<path d="M185.523 21.6359H181.69L166.894 4.84511V21.6359H163.35V0.359863H167.166L181.961 17.1506V0.359863H185.525V21.6337L185.523 21.6359Z" fill="white" fill-opacity="0.35"/>
<path d="M222 15.4521C222 17.4462 221.148 18.9734 219.446 20.038C217.743 21.1025 215.267 21.6337 212.018 21.6337H201.999V0.359863H211.526C214.373 0.359863 216.612 0.843945 218.242 1.80997C219.871 2.77813 220.687 4.10186 220.687 5.78543C220.687 7.83742 219.404 9.35607 216.837 10.3414C218.564 10.6905 219.858 11.3309 220.714 12.2648C221.572 13.1987 222 14.2611 222 15.4499V15.4521ZM205.539 9.27039H211.489C213.447 9.27039 214.889 9.02192 215.814 8.52285C216.738 8.02377 217.201 7.19484 217.201 6.0339C217.201 4.98862 216.751 4.20253 215.851 3.67561C214.951 3.14869 213.388 2.88523 211.16 2.88523H205.539V9.27039ZM205.539 19.1105H211.981C216.215 19.1105 218.332 17.8918 218.332 15.4542C218.332 14.1862 217.842 13.2608 216.863 12.6761C215.884 12.0913 214.104 11.7979 211.526 11.7979H205.541V19.1127H205.539V19.1105Z" fill="white" fill-opacity="0.35"/>
<path d="M231.637 21.6359H228.724V0.359863H231.637V21.6337V21.6359Z" fill="white" fill-opacity="0.35"/>
<path d="M258.686 21.6359H255.444C253.948 18.9028 252.453 16.1696 250.958 13.4365C250.927 13.3615 250.876 13.2694 250.793 13.1859C250.504 12.8967 250.071 12.9417 250.003 12.9503C247.566 12.9417 245.131 12.9353 242.695 12.9267V21.6359H239.563V0.359863H250.038C251.867 0.359863 253.364 0.52051 254.526 0.839661C255.688 1.15881 256.635 1.83139 257.367 2.85738C258.099 3.88338 258.465 5.04003 258.465 6.3252C258.465 7.29337 258.26 8.15657 257.85 8.91268C257.795 9.0155 257.543 9.46959 257.045 10.0094C256.588 10.5042 255.649 11.3738 254.028 11.9585C253.979 11.9864 253.737 12.1342 253.657 12.4405C253.567 12.7853 253.757 13.0531 253.785 13.0916C255.417 15.9383 257.051 18.7849 258.683 21.6337H258.686V21.6359ZM242.699 10.0115H249.688C251.635 10.0115 253.049 9.73519 253.924 9.18471C254.802 8.63423 255.241 7.68106 255.241 6.3252C255.241 3.90694 253.552 2.69673 250.173 2.69673H242.699V10.0115Z" fill="white" fill-opacity="0.35"/>
<path d="M269 21.6359H266.087V0.359863H269V21.6337V21.6359Z" fill="white" fill-opacity="0.35"/>
</g>
<defs>
<clipPath id="clip0_193_24">
<rect width="269" height="22" fill="white"/>
</clipPath>
</defs>
</svg>
