<svg width="165" height="30" viewBox="0 0 165 30" fill="none" xmlns="http://www.w3.org/2000/svg">
<g clip-path="url(#clip0_193_78)">
<path d="M151.481 29.9651C159.684 29.9651 165.002 25.8871 165.002 16.5657V0.584373H156.88V16.8103C156.88 20.8517 154.777 22.7445 151.564 22.7445C148.35 22.7445 146.247 20.7707 146.247 16.6118V0.584373H138.126V16.7754C138.126 25.8062 143.279 29.9651 151.483 29.9651M108.864 29.4267H116.857V20.6881H120.363L126.17 29.4267H135.413L128.519 19.3685C132.107 17.8504 134.455 14.9174 134.455 10.514V10.433C134.455 7.58257 133.591 5.36259 131.907 3.71586C129.968 1.7293 126.918 0.584373 122.501 0.584373H108.864V7.5H122.093C124.769 7.5 126.427 8.65604 126.427 10.9237V11.0062C126.427 13.1087 124.861 14.4283 122.139 14.4283H108.864V29.4283V29.4267ZM89.1983 22.7922C84.8286 22.7922 81.8138 19.17 81.8138 15V14.919C81.8138 10.7601 84.746 7.22052 89.1173 7.22052C93.4886 7.22052 96.5383 10.8411 96.5383 15V15.081C96.5383 19.251 93.6045 22.7906 89.1999 22.7906L89.1983 22.7922ZM89.1157 30C98.0203 30 104.692 23.2829 104.692 15V14.919C104.692 6.63614 98.1013 0.00158691 89.1967 0.00158691C80.2921 0.00158691 73.6081 6.71872 73.6081 15.0016V15.0826C73.6081 23.3654 80.2095 30 89.1141 30H89.1157ZM46.7816 29.4267H54.7745V21.9617L57.7066 18.7143L64.9513 29.4267H74.5564L63.2692 12.9785L74.1943 0.584373H64.7067L54.7745 12.2782V0.584373H46.7816V29.4267Z" fill="white" fill-opacity="0.35"/>
<path d="M15.4694 18.2998L17.6011 16.2545L19.8407 18.5984L17.7091 20.6453L15.4694 18.2998Z" fill="white" fill-opacity="0.35"/>
<path d="M25.7337 28.0531L25.729 28.05L25.5924 28.1818L20.9574 23.4432L22.9191 21.5694L25.6972 24.4056L28.6532 21.517L30.4735 23.421L27.5381 26.2905L27.5524 26.3064L26.1261 27.672L25.7337 28.0531Z" fill="white" fill-opacity="0.35"/>
<path d="M14.9484 28.1389L14.9469 28.1341L14.8071 28.2675L10.1737 23.529L12.1354 21.6552L14.9135 24.4929L23.313 16.1592L25.1317 18.0648L16.7529 26.3779L16.7672 26.3921L15.3408 27.7562L14.9484 28.1389Z" fill="white" fill-opacity="0.35"/>
<path d="M38.3631 15.4748L33.8806 20.1101L31.9714 18.2665C33.4534 16.877 34.8496 15.2287 36.1997 13.8328C38.4171 11.543 38.2773 7.77631 35.8931 5.47216L35.5326 5.1244C33.5614 3.21407 30.6419 2.88059 28.4451 4.12874C27.8908 3.37445 27.2363 2.70591 26.5009 2.13901C29.7079 -0.211194 34.3619 0.095285 37.4148 3.04733L37.9295 3.54119C41.3286 6.82671 41.5304 12.1956 38.3631 15.4732" fill="white" fill-opacity="0.35"/>
<path d="M2.25075 15.4748L6.73322 20.1101L8.64248 18.2664C7.1605 16.877 5.7643 15.2286 4.41416 13.8328C2.19675 11.543 2.33653 7.77628 4.72231 5.47213L5.08287 5.12437C7.05408 3.21403 9.97356 2.88056 12.1703 4.12871C12.7247 3.37442 13.3791 2.70588 14.1145 2.13898C10.9075 -0.211226 6.25194 0.096841 3.19903 3.0473L2.68439 3.54116C-0.714792 6.82667 -0.916519 12.1956 2.25075 15.4732" fill="white" fill-opacity="0.35"/>
<path d="M3.29437 25.163V29.1774C7.78796 24.6199 12.28 20.2609 16.7751 15.7019C19.315 12.3973 19.2149 8.98792 17.6059 5.51978C17.4804 5.24506 17.4597 5.27524 17.2119 5.42292C16.5448 5.81991 16.0318 6.35347 15.6712 7.02518C15.5902 7.17763 15.5251 7.23479 15.5918 7.392C16.5814 9.76444 16.3224 12.3512 14.4735 14.1679C10.7472 17.8329 7.02076 21.498 3.29437 25.163Z" fill="white" fill-opacity="0.35"/>
<path d="M37.4958 25.163V29.1774C33.0022 24.6199 28.507 20.2609 24.015 15.7019C21.4752 12.3973 21.5753 8.98792 23.1843 5.51978C23.3114 5.24506 23.332 5.27524 23.5782 5.42292C24.2454 5.81991 24.76 6.35347 25.1206 7.02518C25.2016 7.17763 25.2651 7.23479 25.1984 7.392C24.2104 9.76444 24.4677 12.3512 26.3166 14.1679C30.043 17.8329 33.7694 21.498 37.4958 25.163Z" fill="white" fill-opacity="0.35"/>
<path d="M20.4538 0.832093C25.5081 0.832093 29.6078 4.93065 29.6078 9.98359C29.6078 11.7065 29.1313 13.3183 28.3021 14.6919L26.2356 12.6101C26.5994 11.8098 26.8027 10.9189 26.8027 9.982C26.8027 6.47575 23.9594 3.63169 20.4538 3.63169C16.9482 3.63169 14.1018 6.47575 14.1018 9.982C14.1018 10.8856 14.2908 11.7478 14.6323 12.5259L12.5563 14.6157C11.7573 13.2564 11.2983 11.6732 11.2983 9.982C11.2983 4.92907 15.3979 0.830505 20.4538 0.830505" fill="white" fill-opacity="0.35"/>
</g>
<defs>
<clipPath id="clip0_193_78">
<rect width="165" height="30" fill="white"/>
</clipPath>
</defs>
</svg>
