<svg width="66" height="70" viewBox="0 0 66 70" fill="none" xmlns="http://www.w3.org/2000/svg">
<g clip-path="url(#clip0_193_89)">
<path fill-rule="evenodd" clip-rule="evenodd" d="M54.5547 12.3524C57.7994 16.7365 59.7187 22.1498 59.7187 28.0102C59.7187 42.619 47.8089 54.4624 33.1165 54.4624C18.4241 54.4624 6.51294 42.6178 6.51294 28.0102C6.51294 21.8947 8.60545 16.2696 12.1092 11.7889C4.71811 17.8065 0 26.9476 0 37.1871C0 55.3095 14.7746 70 33.0006 70C51.2266 70 66 55.3095 66 37.1871C66 27.2597 61.5596 18.3688 54.5535 12.3524H54.5547Z" fill="white" fill-opacity="0.35"/>
<path fill-rule="evenodd" clip-rule="evenodd" d="M36.8668 0L35.3248 4.73586L39.3716 7.66604L34.3657 7.67223L32.8138 12.4044L31.2618 7.67223L26.2548 7.66604L30.3015 4.73586L28.7608 0L32.8138 2.92152L36.8668 0Z" fill="white" fill-opacity="0.35"/>
<path d="M17.8237 29.8406C17.8237 29.8406 17.7303 26.1302 20.8815 23.2718L24.0365 20.7764C24.0365 20.7764 33.7592 13.9971 33.7592 13.9983C33.7592 13.9983 29.0772 20.7268 28.29 24.5995C27.5041 28.4721 26.9523 30.5825 28.4868 35.3939C29.8831 39.773 30.9218 41.5923 31.1859 41.9428C31.212 41.9775 31.2307 41.9973 31.2407 42.0047C31.2631 42.0184 30.9654 41.7991 30.4971 41.4028C29.4907 40.5471 27.7009 38.8677 26.6372 36.9308C25.4963 34.8527 25.4564 31.9113 25.4564 31.9113C25.4564 31.9113 24.9059 33.7479 24.8274 36.1939C24.7489 38.6386 24.7888 42.588 24.9457 43.6444C25.1027 44.7009 25.1425 44.8965 25.1425 44.8965C25.1425 44.8965 22.2703 39.5365 22.1532 35.3901C21.5429 31.2401 23.2543 26.5884 23.6093 25.8454C23.963 25.1023 24.7116 23.7326 24.7116 23.7326C24.7116 23.7326 22.568 24.4645 21.3386 25.4974C21.3249 25.5085 20.3983 26.3197 19.0468 27.9966C18.6532 28.5056 17.8275 29.8406 17.8275 29.8406H17.8237Z" fill="white" fill-opacity="0.35"/>
<path d="M28.6163 14.5345C28.6163 15.4423 27.8765 16.178 26.9635 16.178C26.0505 16.178 25.3107 15.4423 25.3107 14.5345C25.3107 13.6268 26.0505 12.8911 26.9635 12.8911C27.8765 12.8911 28.6163 13.6268 28.6163 14.5345Z" fill="white" fill-opacity="0.35"/>
<path d="M39.947 14.5345C39.947 15.4423 39.2072 16.178 38.2942 16.178C37.3812 16.178 36.6414 15.4423 36.6414 14.5345C36.6414 13.6268 37.3812 12.8911 38.2942 12.8911C39.2072 12.8911 39.947 13.6268 39.947 14.5345Z" fill="white" fill-opacity="0.35"/>
<path d="M15.3613 38.3538L15.436 38.4838L14.7796 39.1229L14.6326 38.9928C14.8157 38.7476 14.9204 38.5259 14.9453 38.3278C14.9702 38.1296 14.9316 37.9426 14.8319 37.7655C14.6874 37.5116 14.4595 37.3593 14.1494 37.3073C13.8392 37.2553 13.5378 37.3122 13.2439 37.4782C13.0334 37.5971 12.864 37.7506 12.7382 37.9377C12.6124 38.1247 12.5451 38.3179 12.5364 38.516C12.5277 38.7154 12.57 38.8962 12.6647 39.0609C12.7245 39.1674 12.8017 39.2578 12.8963 39.3309C12.9898 39.4052 13.0807 39.4572 13.1691 39.4857C13.2351 39.5068 13.2974 39.5117 13.3547 39.4993C13.4132 39.487 13.4855 39.456 13.5714 39.4052L13.6898 39.3384C13.7844 39.2851 13.8455 39.2356 13.8729 39.1922C13.9003 39.1476 13.9102 39.1006 13.904 39.051C13.899 39.0126 13.8579 38.9259 13.7807 38.7897L13.9314 38.7043L14.5081 39.7136L14.3574 39.7991L14.3113 39.7173C14.2714 39.6467 14.2366 39.6034 14.2091 39.5848C14.1805 39.5675 14.1481 39.56 14.1132 39.565C14.0771 39.5687 14.0173 39.5947 13.9339 39.6418L13.0657 40.131L12.9649 39.9539L13.1305 39.7359C13.001 39.6764 12.8826 39.6021 12.7768 39.5117C12.6186 39.3767 12.4928 39.2269 12.3981 39.0609C12.2076 38.7266 12.1677 38.3699 12.2786 37.9909C12.3894 37.6132 12.6298 37.3197 12.9997 37.1116C13.3659 36.9048 13.7433 36.8528 14.1307 36.9531C14.518 37.0546 14.807 37.2738 15.0001 37.6107C15.0486 37.6949 15.0873 37.7841 15.1171 37.8757C15.147 37.9674 15.1657 38.0553 15.1732 38.142C15.1794 38.2064 15.1769 38.2869 15.1632 38.3835L15.365 38.3525L15.3613 38.3538Z" fill="white" fill-opacity="0.35"/>
<path d="M16.7538 40.3068L16.9655 40.5694L15.6477 42.7652C15.5805 42.8741 15.5469 42.9584 15.5431 43.0178C15.5406 43.0773 15.563 43.1355 15.6104 43.1949L15.639 43.2296L15.5033 43.3373L14.8606 42.5422L14.9963 42.4345C15.0187 42.458 15.0399 42.4828 15.0598 42.5076C15.101 42.5583 15.1333 42.5881 15.157 42.5955C15.2018 42.6104 15.2405 42.6054 15.2716 42.5806C15.294 42.5633 15.3376 42.5038 15.4011 42.4035L15.7175 41.9081L15.0636 41.0982L14.4358 41.3124C14.3711 41.3347 14.3287 41.3533 14.3088 41.3682C14.2876 41.3855 14.2727 41.4053 14.2652 41.4301C14.2577 41.4549 14.259 41.4796 14.2652 41.5044C14.2727 41.5304 14.2938 41.5639 14.3287 41.6072C14.3524 41.6357 14.3698 41.6605 14.3835 41.679L14.2478 41.7868L13.7084 41.118L13.8442 41.0103C13.894 41.0722 13.9364 41.1118 13.9712 41.1292C14.0049 41.1465 14.0447 41.1539 14.0883 41.1527C14.1319 41.1515 14.2116 41.1316 14.3262 41.0945L16.7513 40.3068H16.7538ZM15.2679 41.0276L15.8246 41.7174L16.5146 40.6016L15.2679 41.0264V41.0276Z" fill="white" fill-opacity="0.35"/>
<path d="M18.3294 42.1013L19.7979 43.4611L19.6796 43.5875L16.6056 44.1212L17.1125 44.5906C17.3429 44.8036 17.5534 44.9275 17.7465 44.9621C17.9396 44.9968 18.1787 44.956 18.4652 44.8395L18.5611 45.0154L17.7079 45.4414L16.0762 43.9305L16.1933 43.8054L19.271 43.2729L18.8326 42.8667C18.6856 42.7305 18.5561 42.6363 18.444 42.5856C18.3319 42.5348 18.2148 42.5088 18.0953 42.5088C17.9744 42.5088 17.8187 42.5397 17.6294 42.6029L17.5584 42.4196L18.3319 42.1026L18.3294 42.1013Z" fill="white" fill-opacity="0.35"/>
<path d="M20.402 43.9132L21.2926 44.5609L21.1904 44.6996L21.1219 44.65C21.0572 44.603 21.0048 44.5782 20.9625 44.5745C20.9201 44.5708 20.8803 44.5807 20.8429 44.6042C20.8056 44.6265 20.752 44.686 20.6822 44.7801L19.5849 46.2712C19.5301 46.3467 19.4977 46.4049 19.489 46.447C19.4803 46.4892 19.484 46.5275 19.499 46.5597C19.5152 46.5932 19.5563 46.6341 19.6235 46.6836L19.692 46.7331L19.5899 46.8731L18.6993 46.2254L18.8015 46.0867L18.875 46.1399C18.941 46.187 18.992 46.2142 19.0307 46.2192C19.0693 46.2241 19.1041 46.2167 19.1378 46.1981C19.1714 46.1783 19.2175 46.1288 19.276 46.0483L20.3995 44.5225C20.463 44.437 20.4991 44.3751 20.5079 44.3367C20.5166 44.2983 20.5141 44.2624 20.4967 44.229C20.4792 44.1955 20.4381 44.1547 20.3733 44.1064L20.2999 44.0531L20.402 43.9144V43.9132ZM21.244 43.6952C21.3 43.7361 21.3349 43.7918 21.3461 43.8599C21.3573 43.928 21.3424 43.9899 21.3013 44.0457C21.2602 44.1026 21.2054 44.1361 21.1356 44.146C21.0671 44.1559 21.0036 44.141 20.9475 44.0989C20.8915 44.0581 20.8566 44.0036 20.8454 43.9342C20.8342 43.8661 20.8491 43.8029 20.8915 43.7472C20.9326 43.6915 20.9874 43.6593 21.0559 43.6494C21.1244 43.6395 21.1879 43.6543 21.244 43.6964V43.6952Z" fill="white" fill-opacity="0.35"/>
<path d="M23.5121 45.9182L24.5496 46.3863C24.8648 46.5288 25.0728 46.6464 25.1737 46.7405C25.3007 46.8557 25.3879 46.992 25.4327 47.1505C25.4776 47.309 25.4601 47.4774 25.3792 47.6545C25.3107 47.8056 25.2135 47.9196 25.089 47.9951C24.9395 48.0868 24.7888 48.1326 24.6356 48.1301C24.4824 48.1276 24.2694 48.0645 23.9954 47.9418L23.5146 47.7251L23.2094 48.3951C23.1646 48.4942 23.1409 48.5598 23.1397 48.592C23.1385 48.6354 23.1472 48.6701 23.1671 48.6961C23.187 48.7233 23.2368 48.7543 23.3178 48.7902L23.4075 48.8311L23.3365 48.9883L22.3201 48.5301L22.3911 48.3728L22.4534 48.4001C22.5393 48.4385 22.6016 48.4583 22.6402 48.4583C22.6776 48.4583 22.7112 48.4459 22.7399 48.4224C22.7685 48.3988 22.8022 48.3444 22.8408 48.2589L23.6554 46.4743C23.694 46.3913 23.7126 46.3331 23.7114 46.2984C23.7114 46.2637 23.6989 46.2328 23.674 46.2068C23.6491 46.1795 23.5918 46.1461 23.5009 46.1052L23.4386 46.078L23.5096 45.9207L23.5121 45.9182ZM24.1062 46.4322L23.6068 47.527L24.0116 47.7103C24.2158 47.8031 24.3678 47.849 24.4674 47.8502C24.5658 47.8502 24.663 47.8192 24.7577 47.7536C24.8523 47.6892 24.927 47.5963 24.9819 47.4774C25.0416 47.3462 25.0603 47.2223 25.0379 47.1071C25.0155 46.9907 24.9569 46.8929 24.8635 46.8124C24.7975 46.7566 24.6555 46.6799 24.4375 46.582L24.1075 46.4334L24.1062 46.4322Z" fill="white" fill-opacity="0.35"/>
<path d="M26.1738 47.0812L27.605 47.4862C27.8765 47.5629 28.0745 47.6484 28.1966 47.7438C28.3199 47.8391 28.4034 47.9506 28.4482 48.0781C28.493 48.2057 28.4955 48.3382 28.4557 48.4782C28.4146 48.6218 28.3411 48.7382 28.2365 48.8286C28.1318 48.919 28.001 48.9773 27.8454 49.002C27.6897 49.0268 27.4978 49.0082 27.2699 48.9475L27.7494 50.0448C27.7881 50.1352 27.8142 50.1922 27.8279 50.2145C27.8628 50.269 27.9027 50.3135 27.9475 50.3495C27.9923 50.3854 28.0471 50.4114 28.1107 50.43L28.1605 50.4436L28.1131 50.6095L27.4817 50.4312L26.839 48.8262L26.4827 48.7246L26.2399 49.5742C26.2125 49.6696 26.1987 49.729 26.1987 49.755C26.2 49.8045 26.2149 49.8429 26.2423 49.8702C26.2697 49.8974 26.3295 49.9247 26.4242 49.9519L26.4952 49.9717L26.4479 50.1377L25.3867 49.838L25.434 49.672L25.5299 49.6993C25.6009 49.7191 25.6507 49.729 25.6781 49.7265C25.7055 49.724 25.7317 49.7141 25.7578 49.6968C25.784 49.6795 25.8052 49.6534 25.8238 49.62C25.8301 49.6064 25.8512 49.5395 25.8874 49.4219L26.403 47.6174C26.4254 47.5369 26.4342 47.4775 26.4292 47.4379C26.4229 47.3982 26.408 47.3673 26.3843 47.3437C26.3607 47.3202 26.3133 47.2991 26.2423 47.2793L26.129 47.2471L26.1763 47.0812H26.1738ZM26.8315 47.4998L26.535 48.5376L27.1068 48.6986C27.2998 48.7531 27.4393 48.7803 27.5253 48.7779C27.6461 48.7779 27.7507 48.7444 27.8391 48.6788C27.9276 48.6131 27.9911 48.5141 28.0285 48.384C28.0596 48.2738 28.0633 48.1735 28.0384 48.0843C28.0135 47.9952 27.9662 47.9209 27.8964 47.8602C27.8267 47.7995 27.7121 47.7475 27.5539 47.7016L26.8327 47.4973L26.8315 47.4998Z" fill="white" fill-opacity="0.35"/>
<path d="M30.8471 48.0571C31.1086 48.0868 31.3378 48.176 31.5346 48.3258C31.7476 48.4868 31.9033 48.6812 32.0017 48.9104C32.0989 49.1395 32.1325 49.3958 32.0989 49.6782C32.0478 50.1166 31.8697 50.4584 31.5645 50.7024C31.2594 50.9476 30.8932 51.0455 30.4697 50.9984C29.9951 50.9439 29.6389 50.7358 29.401 50.3717C29.2055 50.0745 29.1307 49.7376 29.1743 49.3612C29.2067 49.0813 29.2989 48.8373 29.4521 48.6292C29.6053 48.4212 29.8058 48.2651 30.0549 48.1636C30.304 48.0608 30.5681 48.0261 30.8483 48.0571H30.8471ZM30.8209 48.2763C30.6067 48.2515 30.4174 48.28 30.253 48.3592C30.0886 48.4385 29.9478 48.5685 29.8345 48.7469C29.7199 48.9252 29.6476 49.1543 29.6152 49.4318C29.5841 49.6968 29.604 49.9271 29.6738 50.1216C29.7435 50.316 29.8494 50.4721 29.9926 50.5872C30.1346 50.7024 30.3015 50.7718 30.4946 50.7928C30.6852 50.8151 30.8595 50.7854 31.0177 50.7061C31.1759 50.6269 31.3142 50.4894 31.4337 50.2937C31.5533 50.0993 31.628 49.8751 31.6567 49.6237C31.6866 49.3673 31.6654 49.1283 31.5932 48.9054C31.5321 48.7134 31.4387 48.5661 31.3129 48.4645C31.1871 48.3617 31.024 48.2986 30.8222 48.2763H30.8209Z" fill="white" fill-opacity="0.35"/>
<path d="M32.9894 48.1661L33.1339 48.1599L33.1588 48.2552L34.9263 48.1846L34.9387 48.088L35.0894 48.0818L35.427 48.9116L35.2439 48.9847C35.1455 48.7642 35.0334 48.6107 34.9063 48.524C34.7793 48.4385 34.6211 48.3989 34.4293 48.4063C34.3496 48.41 34.3022 48.415 34.2873 48.4212C34.2723 48.4274 34.2624 48.4398 34.2561 48.4546C34.2499 48.4695 34.2499 48.5178 34.2524 48.5983L34.3334 50.586C34.3371 50.6801 34.3446 50.7445 34.357 50.7767C34.3682 50.8089 34.3844 50.8337 34.4044 50.851C34.4243 50.8684 34.4517 50.8795 34.4853 50.8857C34.519 50.8919 34.5949 50.8931 34.712 50.8907L34.7195 51.0628L33.6085 51.1074L33.601 50.9353C33.7231 50.9291 33.7978 50.9216 33.8252 50.9142C33.8725 50.8981 33.9062 50.8709 33.9248 50.8312C33.9435 50.7916 33.951 50.7198 33.9473 50.617L33.8651 48.5884C33.8626 48.5252 33.8576 48.4868 33.8513 48.4732C33.8451 48.4596 33.8327 48.4497 33.8152 48.4422C33.7978 48.436 33.7617 48.4336 33.7081 48.4348C33.5574 48.441 33.4391 48.4645 33.3506 48.5066C33.2622 48.5487 33.18 48.6169 33.104 48.7122C33.028 48.8076 32.9645 48.929 32.9147 49.0776L32.7266 49.0194L32.9894 48.1661Z" fill="white" fill-opacity="0.35"/>
<path d="M35.8342 48.114L38.136 47.6781L38.5445 48.3679L38.3789 48.4682C38.3104 48.3555 38.2443 48.2701 38.1783 48.2106C38.1123 48.1512 38.0376 48.1041 37.9541 48.0695C37.8707 48.0348 37.791 48.0174 37.7125 48.015C37.634 48.0125 37.497 48.0311 37.3002 48.0682L36.6139 48.1982L36.812 49.2299L37.1545 49.1655C37.2803 49.142 37.3725 49.1023 37.4285 49.0478C37.4846 48.9933 37.5194 48.9327 37.5307 48.8645C37.5406 48.8138 37.5344 48.7295 37.512 48.6131L37.5033 48.5673L37.7025 48.5289L37.9392 49.7649L37.7399 49.8033L37.72 49.6968C37.7013 49.6027 37.6814 49.5358 37.6589 49.4974C37.6365 49.459 37.6029 49.4243 37.5581 49.3946C37.5132 49.3649 37.4671 49.3475 37.4198 49.3426C37.3737 49.3376 37.2965 49.3451 37.1906 49.3649L36.8481 49.4293L37.0237 50.3445C37.0424 50.4399 37.0573 50.4968 37.0698 50.5166C37.0823 50.5352 37.0997 50.5476 37.1221 50.5538C37.1445 50.56 37.2006 50.5538 37.2915 50.5365L37.7162 50.456C37.9541 50.4114 38.1335 50.347 38.2568 50.2652C38.3789 50.1835 38.4798 50.0745 38.5595 49.9395C38.6217 49.833 38.6741 49.6894 38.7152 49.5098L38.912 49.5395L38.765 50.482L36.376 50.9352L36.3437 50.7656L36.4246 50.7495C36.5193 50.7309 36.5766 50.7148 36.5977 50.6975C36.6301 50.6739 36.6513 50.6405 36.6625 50.5984C36.6712 50.5687 36.6662 50.5092 36.6488 50.42L36.2764 48.4806C36.259 48.3927 36.239 48.3357 36.2154 48.3085C36.1917 48.2825 36.1568 48.2651 36.1107 48.2565C36.0858 48.2515 36.0049 48.2614 35.8666 48.2874L35.8342 48.1178V48.114Z" fill="white" fill-opacity="0.35"/>
<path d="M39.3579 47.3363L41.2498 46.6725L41.3071 46.836L40.358 49.7909L41.0107 49.5618C41.3071 49.4578 41.5151 49.329 41.636 49.1754C41.7568 49.0218 41.8303 48.7915 41.8589 48.4856L42.0594 48.4831L42.0432 49.433L39.9408 50.1699L39.8835 50.0089L40.8363 47.0502L40.2708 47.2484C40.0815 47.3152 39.937 47.3858 39.8399 47.4601C39.7427 47.5357 39.6655 47.6261 39.6095 47.7326C39.5534 47.8391 39.5098 47.9902 39.4774 48.1871L39.2806 48.1648L39.3579 47.3363Z" fill="white" fill-opacity="0.35"/>
<path d="M44.7398 44.7231C44.9591 44.5782 45.192 44.5002 45.4398 44.4878C45.7076 44.4742 45.9518 44.5237 46.176 44.6364C46.3989 44.7491 46.5895 44.9237 46.7489 45.1615C46.9943 45.5293 47.079 45.9046 47.0042 46.2885C46.9295 46.6712 46.714 46.9808 46.3578 47.2149C45.9605 47.4774 45.5532 47.5455 45.1347 47.4205C44.7934 47.3189 44.5181 47.1096 44.3064 46.7938C44.1495 46.5585 44.0623 46.312 44.0448 46.0544C44.0274 45.7981 44.0797 45.5504 44.2043 45.3126C44.3288 45.0748 44.5069 44.8779 44.7411 44.7231H44.7398ZM44.8632 44.9089C44.6838 45.0265 44.5567 45.169 44.482 45.3361C44.4073 45.5033 44.3849 45.6916 44.4123 45.9009C44.4409 46.1102 44.5331 46.3319 44.6875 46.5647C44.8357 46.7876 45.0002 46.9499 45.1795 47.0551C45.3589 47.1591 45.5407 47.2099 45.7251 47.2074C45.9094 47.205 46.0813 47.1492 46.242 47.044C46.4014 46.9387 46.516 46.8049 46.5857 46.6427C46.6555 46.4817 46.6729 46.2873 46.638 46.0619C46.6032 45.8365 46.5147 45.6173 46.374 45.4055C46.2308 45.1912 46.0601 45.0216 45.8608 44.8965C45.6902 44.7887 45.5233 44.7367 45.3601 44.738C45.1982 44.7404 45.0325 44.7974 44.8632 44.9089Z" fill="white" fill-opacity="0.35"/>
<path d="M46.4637 43.5664L47.5548 42.5596C47.7616 42.3688 47.9384 42.245 48.0842 42.1905C48.2299 42.1348 48.3694 42.1224 48.5014 42.1496C48.6334 42.1781 48.7493 42.245 48.8489 42.3515C48.9511 42.4617 49.0146 42.5843 49.037 42.7193C49.0607 42.8556 49.0432 42.9967 48.9834 43.1416C48.9237 43.2878 48.8091 43.4401 48.6372 43.6024L49.8292 43.7646C49.9276 43.7782 49.9886 43.7856 50.016 43.7856C50.0808 43.7844 50.1393 43.7733 50.1929 43.7534C50.2464 43.7336 50.2975 43.7014 50.3461 43.6568L50.3834 43.6222L50.5018 43.7485L50.0197 44.1931L48.3071 43.907L48.0356 44.1572L48.6397 44.8049C48.7069 44.8767 48.7518 44.9201 48.7742 44.9337C48.8178 44.9572 48.8576 44.9659 48.895 44.956C48.9324 44.9473 48.9872 44.9102 49.0594 44.8433L49.1142 44.7925L49.2325 44.9188L48.4242 45.6656L48.3059 45.5393L48.3781 45.4724C48.4329 45.4229 48.4653 45.3845 48.4777 45.361C48.4902 45.3362 48.4952 45.3089 48.4939 45.278C48.4915 45.247 48.4815 45.2148 48.4628 45.1826C48.4541 45.1702 48.408 45.117 48.3258 45.0266L47.0416 43.6519C46.9843 43.5912 46.937 43.5528 46.9009 43.5367C46.8648 43.5219 46.8299 43.5181 46.7963 43.5268C46.7639 43.5355 46.7203 43.564 46.6667 43.6135L46.5808 43.6928L46.4625 43.5664H46.4637ZM47.165 43.2246L47.9036 44.0148L48.3382 43.6123C48.4865 43.476 48.5811 43.372 48.6247 43.2977C48.687 43.1949 48.7132 43.0896 48.7019 42.9794C48.6907 42.8704 48.6397 42.7652 48.5463 42.6661C48.4678 42.5819 48.3831 42.5274 48.2947 42.5026C48.205 42.4778 48.1165 42.4791 48.0294 42.5063C47.9409 42.5348 47.8363 42.6042 47.7155 42.7169L47.1662 43.2234L47.165 43.2246Z" fill="white" fill-opacity="0.35"/>
<path d="M48.8103 41.1724L48.9012 41.0597L48.9897 41.1043L50.0957 39.7309L50.0297 39.6578L50.1243 39.5402L50.975 39.8312L50.9103 40.017C50.6786 39.9464 50.488 39.9303 50.3398 39.9674C50.1916 40.0058 50.0583 40.0987 49.9375 40.2473C49.8877 40.3092 49.8603 40.3489 49.8553 40.3637C49.8503 40.3798 49.8528 40.3947 49.8603 40.4083C49.8678 40.4232 49.9039 40.4554 49.9674 40.5062L51.5293 41.7496C51.604 41.809 51.6564 41.8449 51.6887 41.8573C51.7211 41.8697 51.7498 41.8747 51.7759 41.8709C51.8021 41.8672 51.8282 41.8548 51.8556 41.8325C51.883 41.8115 51.9329 41.7558 52.0076 41.6654L52.1434 41.7731L51.4483 42.6363L51.3126 42.5286C51.3886 42.4332 51.4322 42.3713 51.4434 42.3453C51.4633 42.2994 51.4633 42.2561 51.4459 42.2165C51.4284 42.1768 51.3786 42.1236 51.2976 42.0592L49.7033 40.7898C49.6535 40.7501 49.6224 40.7291 49.6074 40.7254C49.5925 40.7216 49.5775 40.7254 49.5601 40.7328C49.5439 40.7415 49.5178 40.7662 49.4854 40.8083C49.392 40.9248 49.3309 41.03 49.3048 41.1241C49.2786 41.2183 49.2761 41.3248 49.2985 41.4437C49.321 41.5626 49.372 41.6901 49.4517 41.8251L49.2836 41.9291L48.8078 41.1724H48.8103Z" fill="white" fill-opacity="0.35"/>
<path d="M50.6313 39.0089L51.8071 36.9939L52.5993 37.14L52.5669 37.3308C52.4373 37.3085 52.3277 37.3023 52.2393 37.3134C52.1509 37.3246 52.0662 37.3493 51.9852 37.389C51.9042 37.4286 51.8382 37.4781 51.7847 37.5351C51.7324 37.5933 51.6551 37.7072 51.5555 37.8794L51.2042 38.48L52.1172 39.0076L52.2916 38.7079C52.3564 38.5977 52.3863 38.5036 52.3813 38.4256C52.3763 38.3475 52.3526 38.2819 52.309 38.2274C52.2767 38.1865 52.2094 38.137 52.106 38.0763L52.0649 38.0528L52.1671 37.8794L53.2606 38.5098L53.1585 38.6832L53.0638 38.6287C52.9804 38.5804 52.9169 38.5519 52.872 38.5432C52.8284 38.5345 52.7799 38.537 52.7275 38.5506C52.6752 38.5655 52.6316 38.5878 52.598 38.62C52.5631 38.6522 52.5195 38.7141 52.4647 38.807L52.2904 39.1067L53.1 39.5736C53.1847 39.6219 53.2382 39.6479 53.2606 39.6504C53.2831 39.6541 53.3042 39.6479 53.3229 39.6355C53.3416 39.6231 53.374 39.5761 53.4201 39.4968L53.6368 39.1253C53.7576 38.9172 53.8274 38.7414 53.846 38.5952C53.8635 38.4491 53.8473 38.3029 53.7962 38.1543C53.7564 38.0379 53.6816 37.9054 53.572 37.7568L53.724 37.628L54.343 38.3562L53.1224 40.448L52.9717 40.3613L53.0128 40.2907C53.0614 40.2077 53.0863 40.1532 53.0875 40.1272C53.09 40.0876 53.0788 40.0492 53.0539 40.0133C53.0377 39.9872 52.9891 39.9513 52.9094 39.9067L51.1918 38.916C51.1133 38.8714 51.0573 38.8479 51.0212 38.8491C50.985 38.8491 50.9502 38.864 50.9128 38.8937C50.8929 38.9085 50.8468 38.9767 50.777 39.098L50.6276 39.0113L50.6313 39.0089Z" fill="white" fill-opacity="0.35"/>
<path d="M52.3489 35.8508L53.0837 33.9944L53.2457 34.0575L54.8711 36.7054L55.1239 36.0638C55.2385 35.7728 55.2771 35.5325 55.2398 35.3406C55.2012 35.1499 55.0754 34.943 54.8611 34.7214L54.9907 34.569L55.7019 35.2031L54.886 37.2664L54.7254 37.2032L53.0999 34.5517L52.8807 35.1065C52.8072 35.2923 52.7674 35.4471 52.7599 35.5697C52.7524 35.6923 52.7711 35.8087 52.816 35.9214C52.8608 36.0329 52.9467 36.1654 53.075 36.3177L52.9293 36.4502L52.3501 35.8508H52.3489Z" fill="white" fill-opacity="0.35"/>
<path d="M43.7297 35.0966L43.7048 35.109H43.7285C43.7285 35.109 43.7285 35.1003 43.7297 35.0966Z" fill="white" fill-opacity="0.35"/>
<path d="M41.0917 36.496C41.1589 38.9519 41.1191 42.6982 40.9708 43.7237C40.8189 44.7801 40.7803 44.9757 40.7803 44.9757C40.7803 44.9757 43.1331 40.4492 43.6027 36.4973H41.0917V36.496Z" fill="white" fill-opacity="0.35"/>
<path d="M41.2 23.8118C41.2 23.8118 42.8304 24.3864 44.0324 25.2348L45.8372 24.3555C45.5656 24.0137 45.263 23.6756 44.9142 23.3498L41.8527 20.8544C41.8527 20.8544 32.4189 14.0751 32.4189 14.0763C32.4189 14.0763 36.9627 20.8048 37.7262 24.6775C38.4897 28.5501 39.0241 30.6605 37.5356 35.4719C36.1805 39.8523 35.1728 41.6703 34.9163 42.0208C34.8913 42.0555 34.8727 42.0753 34.8639 42.0827C34.8428 42.0964 35.1317 41.8772 35.5851 41.4808C36.5616 40.6251 38.2991 38.9457 39.3292 37.0088C40.4365 34.9306 40.4751 31.9893 40.4751 31.9893C40.4751 31.9893 40.9584 33.6563 41.0705 35.9288H43.6575C43.6687 35.774 43.6774 35.6205 43.6811 35.4681C43.6998 35.3381 43.716 35.2081 43.7297 35.078C44.1706 31.032 42.6012 26.6441 42.2687 25.9234C41.9249 25.1803 41.2 23.8106 41.2 23.8106V23.8118Z" fill="white" fill-opacity="0.35"/>
<path d="M46.1473 24.7716L44.4808 25.5828C44.5294 25.6262 45.4124 26.4336 46.6978 28.0746C47.0802 28.5836 47.8811 29.9186 47.8811 29.9186C47.8811 29.9186 47.9372 27.3018 46.1473 24.7704V24.7716Z" fill="#BABABA" fill-opacity="0.35"/>
<path d="M43.6525 35.9288C43.6525 35.9288 43.6525 35.9202 43.6525 35.9164L43.503 35.9288H43.6525Z" fill="white" fill-opacity="0.35"/>
<path d="M41.0742 36.496C41.1465 38.9469 41.1078 42.8196 40.9584 43.8648C40.8027 44.9212 40.7653 45.1182 40.7653 45.1182C40.7653 45.1182 43.1717 40.4801 43.6039 36.496H41.0742Z" fill="#BABABA" fill-opacity="0.35"/>
</g>
<defs>
<clipPath id="clip0_193_89">
<rect width="66" height="70" fill="white"/>
</clipPath>
</defs>
</svg>
