<svg width="208" height="22" viewBox="0 0 208 22" fill="none" xmlns="http://www.w3.org/2000/svg">
<g clip-path="url(#clip0_193_40)">
<path d="M19.4094 21.9787V21.983C19.2613 21.9895 19.0381 21.9982 18.7463 22.0003C18.9452 21.9982 19.1685 21.9917 19.4094 21.9787Z" fill="white" fill-opacity="0.35"/>
<path d="M31.4384 17.1588C27.1481 21.0738 22.0818 21.8529 19.4117 21.9789C19.1708 21.9895 18.9475 21.996 18.7486 22.0002H18.4126C18.2137 21.9981 17.9904 21.9917 17.7495 21.9789C15.0793 21.8529 10.0109 21.0759 5.72273 17.1588C-0.386789 11.5851 -0.11049 4.04544 0.0685514 2.14344C0.0840242 1.9684 0.278539 1.86166 0.442107 1.93851C1.99822 2.67925 3.36424 2.90339 4.21303 2.98024C5.48401 3.09551 7.29432 3.25988 9.056 2.22242C10.1369 1.58416 10.7956 0.732419 11.1691 0.124035C11.2576 -0.0189883 11.4631 -0.0403351 11.5847 0.0813416C12.4335 0.937348 14.1288 2.35904 16.662 2.88844C17.3582 3.0336 18.0037 3.08697 18.5806 3.09124C19.1553 3.0891 19.8029 3.0336 20.497 2.88844C23.0301 2.35904 24.7277 0.937348 25.5765 0.0813416C25.6958 -0.0403351 25.9036 -0.021123 25.992 0.124035C26.3656 0.732419 27.0221 1.58416 28.1029 2.22242C29.8646 3.25988 31.6771 3.09551 32.9459 2.98024C33.7947 2.90339 35.1629 2.67925 36.7168 1.93851C36.8804 1.85953 37.0771 1.96626 37.0926 2.14344C37.2694 4.04544 37.5457 11.5851 31.4384 17.1588Z" fill="white" fill-opacity="0.35"/>
<path d="M17.7494 21.9787C17.9904 21.9895 18.2136 21.996 18.4125 22.0003C18.1208 22.0003 17.8975 21.9895 17.7494 21.983V21.9787Z" fill="white" fill-opacity="0.35"/>
<path d="M61.8688 21.936L58.9423 9.51L56.0157 21.936H48.7988L42.2958 0.00854492H49.988L52.9145 13.4207L56.3539 0.00854492H61.5284L64.9656 13.4207L67.859 0.00854492H75.5865L69.0857 21.936H61.8688Z" fill="white" fill-opacity="0.35"/>
<path d="M77.0144 21.936V0.00854492H83.8909V21.936H77.0144Z" fill="white" fill-opacity="0.35"/>
<path d="M87.5668 21.936V0.00854492H94.4434V16.1488H103.055V21.9338H87.5668V21.936Z" fill="white" fill-opacity="0.35"/>
<path d="M125.897 21.936V8.09684L120.824 21.936H117.761L112.688 8.09684V21.936H105.811V0.00854492H115.309L119.293 11.1857L123.276 0.00854492H132.774V21.936H125.897Z" fill="white" fill-opacity="0.35"/>
<path d="M151.938 21.936L151.054 19.1096H142.34L141.456 21.936H134L142.371 0.00854492H151.018L159.391 21.936H151.936H151.938ZM146.695 5.86183L144.109 13.5872H149.283L146.697 5.86183H146.695Z" fill="white" fill-opacity="0.35"/>
<path d="M175.868 21.936L167.495 10.1675V21.936H160.618V0.00854492H167.698L175.596 11.0534V0.00854492H182.472V21.936H175.868Z" fill="white" fill-opacity="0.35"/>
<path d="M201.395 21.936L193.022 10.1675V21.936H186.146V0.00854492H193.226L201.123 11.0534V0.00854492H208V21.936H201.395Z" fill="white" fill-opacity="0.35"/>
</g>
<defs>
<clipPath id="clip0_193_40">
<rect width="208" height="22" fill="white"/>
</clipPath>
</defs>
</svg>
