<?xml version="1.0" encoding="UTF-8"?>
<svg id="katman_2" data-name="katman 2" xmlns="http://www.w3.org/2000/svg" viewBox="0 0 1528.06 1528.06">
  <defs>
    <style>
      .cls-1 {
        fill: #fff;
      }

      .cls-2 {
        fill: #262626;
      }

      .cls-3 {
        fill: #00ff1e;
      }
    </style>
  </defs>
  <g id="katman_1" data-name="katman 1">
    <rect class="cls-2" y="0" width="1528.06" height="1528.06"/>
    <g>
      <g>
        <path class="cls-1" d="M459.02,933.85c-17.94,0-34.33-3.5-49.17-10.52-14.84-7.02-27.66-16.45-38.47-28.3-10.81-11.84-19.1-25.19-24.84-40.02-5.75-14.84-8.63-30.19-8.63-46.07s3.05-31.86,9.14-46.58c6.09-14.72,14.61-27.89,25.53-39.51,10.92-11.62,23.86-20.76,38.82-27.43,14.95-6.67,31.28-10.01,49-10.01s34.68,3.51,49.51,10.53c14.84,7.02,27.6,16.51,38.3,28.46,10.7,11.96,18.92,25.36,24.67,40.2,5.75,14.84,8.63,29.96,8.63,45.37,0,16.33-2.99,31.86-8.97,46.58-5.98,14.73-14.49,27.9-25.53,39.51-11.04,11.62-23.98,20.82-38.82,27.61-14.84,6.79-31.23,10.18-49.17,10.18ZM395.18,809.63c0,9.44,1.43,18.58,4.31,27.43,2.87,8.86,7.01,16.73,12.42,23.63,5.4,6.9,12.08,12.42,20.01,16.56,7.94,4.14,17.31,6.21,28.12,6.21s19.9-2.12,27.95-6.38c8.05-4.25,14.72-10.01,20.01-17.25,5.29-7.25,9.26-15.24,11.9-23.98,2.64-8.74,3.97-17.71,3.97-26.91s-1.44-18.51-4.31-27.26c-2.88-8.74-7.02-16.61-12.42-23.63-5.41-7.01-12.14-12.47-20.19-16.39-8.05-3.91-17.14-5.87-27.26-5.87-10.81,0-20.24,2.07-28.29,6.21-8.06,4.14-14.72,9.78-20.01,16.91-5.29,7.14-9.32,15.01-12.08,23.63-2.76,8.63-4.14,17.66-4.14,27.09Z"/>
        <path class="cls-1" d="M829.59,804.12v128.01h-47.27v-23.97c-18.69,17.13-40.2,25.69-64.53,25.69-15.87,0-30.89-3.04-45.03-9.15-14.15-6.08-26.63-14.66-37.45-25.7-10.81-11.04-19.38-24.27-25.7-39.68-6.32-15.41-9.49-32.55-9.49-51.41,0-16.8,3.17-32.61,9.49-47.45,6.32-14.84,15.02-27.9,26.06-39.17,11.04-11.27,23.97-20.07,38.81-26.39,14.84-6.32,30.89-9.49,48.13-9.49,22.54,0,42.44,4.83,59.7,14.49,17.25,9.66,30.13,22.66,38.64,38.98l-42.44,31.75c-5.53-11.04-13.52-19.61-23.98-25.7-10.47-6.1-21.8-9.15-33.98-9.15-9.2,0-17.66,1.9-25.36,5.69-7.71,3.8-14.33,9.09-19.84,15.87-5.53,6.78-9.83,14.66-12.94,23.64-3.11,8.97-4.66,18.62-4.66,28.98s1.61,20.35,4.84,29.33c3.21,8.97,7.7,16.74,13.45,23.28,5.75,6.56,12.6,11.68,20.53,15.36,7.94,3.68,16.62,5.52,26.05,5.52,11.73,0,23-2.93,33.82-8.8,9.31-5.04,17.93-12.1,25.88-21.16v-8.68h-46.94v-40.71h94.2Z"/>
      </g>
      <polygon class="cls-1" points="899.99 931.99 899.99 932.13 899.91 932.13 899.99 931.99"/>
      <polygon class="cls-3" points="1177.74 629.53 1177.74 606.62 1154.59 606.62 1141.74 594.2 1016.39 594.2 1064.64 640.83 1143.52 640.83 1143.52 718.91 1190.15 767.16 1190.15 642.38 1177.74 629.53"/>
      <polygon class="cls-1" points="1103.27 680.68 1103.27 932.13 1056.65 932.13 1056.65 931.76 1056.02 932.13 977.97 796.93 899.99 931.99 899.91 932.13 853.37 932.13 853.37 680.68 899.99 680.68 899.99 826.59 907 826.59 951 750.39 1004.93 750.39 1048.93 826.59 1056.65 826.59 1056.65 680.68 1103.27 680.68"/>
    </g>
  </g>
</svg>