<svg width="180" height="24" viewBox="0 0 180 24" fill="none" xmlns="http://www.w3.org/2000/svg">
<g clip-path="url(#clip0_193_14)">
<path d="M12.1188 0.830261C13.7177 0.830261 15.1601 1.12615 16.4436 1.72013C17.7272 2.31411 18.7285 3.12449 19.4518 4.15347C20.173 5.18246 20.5325 6.31963 20.5325 7.56501C20.5325 8.43501 20.3252 9.24539 19.9106 9.99615C19.4959 10.7469 18.9137 11.4204 18.1617 12.0144C19.1695 12.4295 20.0429 13.0765 20.7839 13.9575C21.5249 14.8385 21.8954 15.8013 21.8954 16.8501C21.8954 18.1551 21.5205 19.3232 20.7707 20.35C20.0208 21.379 19.0019 22.1805 17.7184 22.7524C16.4348 23.3265 15.0322 23.6026 13.5104 23.5827H0V0.830261H12.1188ZM5.59957 9.99615H12.1188C13.1443 9.99615 13.9449 9.72896 14.5183 9.1946C15.0917 8.66024 15.3784 7.97793 15.3784 7.14768C15.3784 6.45433 15.063 5.91113 14.4301 5.51588C13.7971 5.12063 13.0274 4.9219 12.1188 4.9219H5.59957V9.99394V9.99615ZM16.4745 16.8501C16.4745 16.1965 16.2077 15.629 15.6739 15.1433C15.1402 14.6597 14.4191 14.4168 13.5104 14.4168H5.59957V19.2813H13.5104C15.4865 19.1024 16.4745 18.292 16.4745 16.8479V16.8501Z" fill="white" fill-opacity="0.35"/>
<path d="M42.9021 0.830261V23.5827H37.2143V0.830261H42.9021Z" fill="white" fill-opacity="0.35"/>
<path d="M71.674 0.830261C72.898 0.830261 74.0581 1.01795 75.1542 1.39333C76.2503 1.76871 77.2229 2.29424 78.0742 2.96551C78.963 3.99449 79.6202 4.89982 80.0436 5.68149C80.4671 6.46316 80.681 7.25808 80.681 8.06846C80.681 8.87884 80.4648 9.71572 80.0282 10.5151C79.5915 11.3144 78.9409 12.191 78.072 13.1405C77.1633 13.9111 76.0562 14.4963 74.7528 14.8915L81.0647 23.5827H75.1674L69.0937 15.2161H64.4116V23.5827H58.812V0.830261H71.674ZM64.4138 10.8286H71.674C72.1879 10.8286 72.6974 10.7579 73.2002 10.621C73.703 10.4819 74.1529 10.2854 74.5477 10.0271C75.2975 9.47282 75.6725 8.82143 75.6725 8.06846C75.6725 7.31549 75.2975 6.65527 74.5477 6.14078C73.7185 5.56667 72.7591 5.27961 71.674 5.27961H64.4138V10.8264V10.8286Z" fill="white" fill-opacity="0.35"/>
<path d="M102.665 0.830261V23.5827H96.9769V0.830261H102.665Z" fill="white" fill-opacity="0.35"/>
<path d="M139.376 5.51809H124.057V10.0558H134.191V14.3572H124.057V18.8661H139.672V23.5827H118.577V0.830261H139.376V5.51809Z" fill="white" fill-opacity="0.35"/>
<path d="M167.524 4.50897C164.937 4.50897 162.793 4.90422 161.095 5.69473C160.681 5.931 160.359 6.19818 160.134 6.49627C159.906 6.79216 159.763 7.15871 159.704 7.59371C159.704 8.08832 159.792 8.42396 159.97 8.60281C160.246 8.91858 160.692 9.13718 161.305 9.25642C162.054 9.4154 162.804 9.5236 163.556 9.58322C164.306 9.64284 165.246 9.69142 166.371 9.73116C166.924 9.73116 167.348 9.7422 167.645 9.75987H169.571C172.435 9.89898 174.676 10.3428 176.297 11.0958C178.765 12.3213 180 14.0811 180 16.3754C180 16.6337 179.989 16.8302 179.971 16.9694C179.656 19.4226 178.469 21.2067 176.416 22.324C174.361 23.4413 171.705 24 168.446 24C165.543 24 163.089 23.8211 161.084 23.4656C159.079 23.1101 156.872 22.4477 154.461 21.4783L155.114 16.9694C156.971 17.8394 158.916 18.5128 160.95 18.9876C162.983 19.4623 164.959 19.6986 166.876 19.6986C168.437 19.6986 169.829 19.5617 171.053 19.2835C171.902 19.0869 172.607 18.7844 173.172 18.3781C173.734 17.9741 174.065 17.3955 174.164 16.6426C174.224 16.1678 174.149 15.7814 173.942 15.4855C173.734 15.1896 173.454 14.971 173.097 14.8319C172.682 14.5956 172.16 14.4256 171.527 14.3285C170.894 14.2291 170.115 14.1496 169.187 14.09H167.438L166.223 14.0017C164.584 13.9222 163.19 13.8051 162.046 13.6461C160.623 13.5092 159.364 13.2597 158.268 12.9042C157.172 12.5487 156.267 11.9945 155.557 11.2437C154.569 10.3538 154.075 9.26525 154.075 7.98013C154.075 7.70411 154.084 7.49655 154.104 7.35744C154.163 6.13193 154.571 5.00359 155.332 3.97461C156.093 2.94563 157.057 2.16395 158.221 1.6318C159.19 1.11731 160.542 0.717637 162.282 0.430582C164.02 0.143527 165.848 0 167.762 0C169.48 0 170.982 0.108198 172.266 0.326801C172.581 0.366547 172.799 0.406293 172.918 0.446039C174.043 0.624896 175.027 0.801546 175.867 0.980403C176.705 1.15926 177.64 1.4154 178.668 1.75103L177.009 6.02374C173.631 5.01463 170.47 4.51118 167.528 4.51118H167.524V4.50897Z" fill="white" fill-opacity="0.35"/>
</g>
<defs>
<clipPath id="clip0_193_14">
<rect width="180" height="24" fill="white"/>
</clipPath>
</defs>
</svg>
